#!OML:ASF H:\ColoradoDance\Project 1\Capture day 1\Session 8\male.ASF
:FULLY-SPECIFIED
:DEGREES
97
upperback 2.416280 -0.355934 2.290130
rfoot 195.582993 165.223999
lradius 58.485802
lthumb 19.156500 8.575370
rradius 14.231600
lwrist 22.722601
rhand 6.595110 2.367060
rhumerus -75.480904 -19.951099 -87.945099
lowerneck -1.573740 17.397200 23.042299
lhand -6.702950 -380.501007
ltibia 65.790398
head 8.083090 12.162200 -7.231920
rwrist -335.704987
lfingers 7.125020
rtoes 3.332520
lowerback 8.497350 -1.195000 10.983900
rfingers 7.125020
lclavicle -0.000000 0.000000
upperneck 7.427240 24.927500 -20.351200
rfemur -13.235200 -2.708270 -1.997040
thorax -2.302830 -0.104661 -3.731680
rclavicle -0.000000 0.000000
rtibia 55.012001
lfoot -25.973000 21.497700
lhumerus -157.412003 -114.032997 265.927002
rthumb 31.890200 -24.860800
root -22.994499 17.273001 -10.610800 -160.447998 46.533901 190.845001
ltoes 20.852600
lfemur -63.349899 22.229700 -35.973900
98
upperback 1.065150 -6.428630 6.251850
rfoot 161.908997 163.751999
lradius 27.778999
lthumb 3.531570 10.063500
rradius 9.282680
lwrist 11.785400
rhand -21.396000 103.292000
rhumerus -72.748497 -6.985360 -74.347900
lowerneck -1.679850 14.634100 17.653200
lhand -22.908400 -379.886993
ltibia 58.424301
head 6.735980 10.718800 -7.599980
rwrist -306.020996
lfingers 7.125020
rtoes -14.597500
lowerback 7.406020 -5.082920 10.799100
rfingers 7.125020
lclavicle 0.000000 -0.000000
upperneck 6.701570 21.862000 -21.614500
rfemur -52.026901 3.438740 7.430010
thorax -3.425070 -3.579460 1.248820
rclavicle 0.000000 -0.000000
rtibia 68.193802
lfoot -31.782499 1.091000
lhumerus -167.341995 -150.759995 283.622009
rthumb 4.992000 133.214005
root -22.834400 17.465099 -14.992600 -171.108002 -9.181110 185.604996
ltoes 20.337999
lfemur -26.520000 0.267677 -35.485001
99
upperback 1.093250 -4.858770 4.018650
rfoot 166.195999 176.197998
lradius 8.929040
lthumb 7.888450 -3.902770
rradius 5.069070
lwrist -18.687401
rhand -28.467400 101.796997
rhumerus -77.105598 22.646500 -115.459000
lowerneck -3.004910 11.277100 11.994400
lhand -18.395700 -393.735992
ltibia 58.821400
head 5.852190 7.467310 -4.052650
rwrist -352.515015
lfingers 7.125020
rtoes -30.057699
lowerback 2.856160 -3.619360 4.659540
rfingers 7.125020
lclavicle -0.000000 0.000000
upperneck 11.959000 15.452200 -10.389900
rfemur -43.998402 5.125370 10.951900
thorax -0.502170 -2.504930 1.690350
rclavicle -0.000000 0.000000
rtibia 46.416698
lfoot 7.124050 -11.651400
lhumerus -173.164001 -200.779007 267.782013
rthumb -1.837290 131.768997
root -24.125999 17.678600 -21.212799 -186.667999 -42.600700 189.990005
ltoes 4.430930
lfemur 4.801640 -6.543880 -20.191401
100
upperback 0.905971 -1.278060 5.474110
rfoot 152.516006 166.281998
lradius 10.114200
lthumb 15.212500 18.937700
rradius 18.144600
lwrist -27.665501
rhand 0.133366 -49.694901
rhumerus -27.597300 60.393700 -73.111504
lowerneck -4.740430 4.251800 6.019370
lhand -10.800600 -370.483002
ltibia 84.470596
head 3.409550 2.724050 -3.146040
rwrist -366.506989
lfingers 7.125020
rtoes -17.993299
lowerback 6.818750 -1.330710 7.885430
rfingers 7.125020
lclavicle 0.000000 0.000000
upperneck 6.479640 5.708920 -6.953970
rfemur -30.016800 -9.012000 30.590900
thorax -2.923030 -0.807854 1.393850
rclavicle 0.000000 0.000000
rtibia 66.692101
lfoot -24.616199 10.522400
lhumerus -145.751999 -221.216003 253.212997
rthumb 25.718100 282.023010
root -26.079201 17.302700 -26.086399 -224.557999 -64.444801 226.729004
ltoes -1.443470
lfemur -52.654800 15.954300 -15.345700
